<?xml version="1.0" encoding="UTF-8" standalone="no"?>
<svg
   xmlns:dc="http://purl.org/dc/elements/1.1/"
   xmlns:cc="http://creativecommons.org/ns#"
   xmlns:rdf="http://www.w3.org/1999/02/22-rdf-syntax-ns#"
   xmlns:svg="http://www.w3.org/2000/svg"
   xmlns="http://www.w3.org/2000/svg"
   xmlns:sodipodi="http://sodipodi.sourceforge.net/DTD/sodipodi-0.dtd"
   xmlns:inkscape="http://www.inkscape.org/namespaces/inkscape"
   sodipodi:docname="Adani Group.svg"
   inkscape:version="1.0 (4035a4fb49, 2020-05-01)"
   id="svg552"
   version="1.1"
   viewBox="0 0 31.85 11.15"
   height="11.15mm"
   width="31.85mm">
  <defs
     id="defs546">
    <clipPath
       clipPathUnits="userSpaceOnUse"
       id="clipPath34">
      <path
         d="m 126.755,727.681 c 0,-1.377 1.047,-2.552 2.507,-2.552 v 0 c 1.38,0 2.468,1.175 2.468,2.552 v 0 c 0,1.382 -1.088,2.463 -2.468,2.463 v 0 c -1.46,0 -2.507,-1.081 -2.507,-2.463 m -49.152,0.002 v -6.265 c -1.378,0.627 -3.464,1.209 -5.473,1.209 v 0 c -5.385,0 -8.478,-3.211 -8.941,-8.395 v 0 c -0.124,-1.508 -0.124,-4.474 0,-5.937 v 0 c 0.463,-5.134 3.885,-8.608 9.527,-8.608 v 0 c 4.051,0 7.434,1.802 8.523,2.6 v 0 c 0.67,0.455 0.797,0.917 0.797,1.67 v 0 23.726 c 0,1.252 -0.966,2.257 -2.219,2.257 v 0 c -1.207,0 -2.214,-1.005 -2.214,-2.257 m -9.989,-18.839 c -0.12,1.294 -0.081,3.755 0,4.888 v 0 c 0.173,3.046 1.676,4.637 4.85,4.637 v 0 c 2.177,0 4.264,-0.755 5.139,-1.299 v 0 -11.61 c -0.836,-0.631 -3.005,-1.503 -4.804,-1.503 v 0 c -3.219,0 -4.929,1.669 -5.185,4.887 m 38.681,11.488 c -0.623,-0.421 -0.882,-0.84 -0.882,-1.712 v 0 -16.417 c 0,-1.255 1.046,-2.261 2.22,-2.261 v 0 c 1.249,0 2.215,1.006 2.215,2.261 v 0 14.99 c 0.953,0.588 2.921,1.176 4.964,1.176 v 0 c 2.595,0 4.855,-1.424 4.855,-4.767 v 0 -11.399 c 0,-1.255 1.04,-2.261 2.21,-2.261 v 0 c 1.299,0 2.217,1.006 2.217,2.261 v 0 11.61 c 0,5.643 -3.095,8.814 -9.151,8.814 v 0 c -4.386,0 -7.438,-1.379 -8.648,-2.295 m -18.879,1.047 c -1.127,-0.505 -1.466,-1.34 -1.466,-2.053 v 0 c 0,-1.294 1.216,-2.256 3.054,-1.669 v 0 c 1.171,0.418 2.843,0.918 4.555,0.918 v 0 c 3.254,0 4.637,-1.212 4.637,-4.052 v 0 -1.376 c -1.924,0.455 -3.349,0.704 -5.309,0.704 v 0 c -5.847,0 -8.481,-3.301 -8.481,-6.933 v 0 c 0,-4.095 2.838,-7.231 8.563,-7.231 v 0 c 4.347,0 7.525,1.553 8.697,2.343 v 0 c 0.624,0.421 0.79,0.875 0.79,1.63 v 0 10.863 c 0,5.642 -3.302,8.104 -8.649,8.104 v 0 c -2.542,0 -5.178,-0.663 -6.391,-1.248 m 1.336,-14.298 c 0,2.008 1.836,3.14 4.385,3.14 v 0 c 1.884,0 3.22,-0.253 5.059,-0.709 v 0 -4.643 c -0.421,-0.329 -1.962,-1.295 -4.848,-1.295 v 0 c -2.965,0 -4.596,1.255 -4.596,3.507 m -43.234,14.298 c -1.126,-0.505 -1.466,-1.34 -1.466,-2.053 v 0 c 0,-1.294 1.214,-2.256 3.054,-1.669 v 0 c 1.17,0.418 2.845,0.918 4.553,0.918 v 0 c 3.262,0 4.639,-1.212 4.639,-4.052 v 0 -1.376 c -1.924,0.455 -3.343,0.704 -5.307,0.704 v 0 c -5.65,0 -8.298,-3.083 -8.471,-6.564 v 0 -0.767 c 0.179,-3.896 3.016,-6.833 8.552,-6.833 v 0 c 4.351,0 7.522,1.553 8.697,2.343 v 0 c 0.625,0.421 0.79,0.875 0.79,1.63 v 0 10.863 c 0,5.642 -3.302,8.104 -8.648,8.104 v 0 c -2.549,0 -5.179,-0.663 -6.393,-1.248 m 1.34,-14.298 c 0,2.008 1.835,3.14 4.384,3.14 v 0 c 1.879,0 3.22,-0.253 5.056,-0.709 v 0 -4.643 c -0.416,-0.329 -1.967,-1.295 -4.849,-1.295 v 0 c -2.964,0 -4.591,1.255 -4.591,3.507 m 80.189,12.911 v -17.878 c 0,-1.254 1.046,-2.261 2.215,-2.261 v 0 c 1.252,0 2.22,1.007 2.22,2.261 v 0 17.878 c 0,1.252 -1.007,2.257 -2.22,2.257 v 0 c -1.254,0 -2.215,-1.005 -2.215,-2.257"
         id="path32" />
    </clipPath>
    <linearGradient
       x1="0"
       y1="0"
       x2="1"
       y2="0"
       gradientUnits="userSpaceOnUse"
       gradientTransform="matrix(166.282,14.5478,-14.5478,166.282,0.6945724,707.35483)"
       spreadMethod="pad"
       id="linearGradient50">
      <stop
         style="stop-opacity:1;stop-color:#00b16b"
         offset="0"
         id="stop40" />
      <stop
         style="stop-opacity:1;stop-color:#006db6"
         offset="0.350006"
         id="stop42" />
      <stop
         style="stop-opacity:1;stop-color:#8e278f"
         offset="0.649994"
         id="stop44" />
      <stop
         style="stop-opacity:1;stop-color:#f04c23"
         offset="0.899994"
         id="stop46" />
      <stop
         style="stop-opacity:1;stop-color:#f04c23"
         offset="1"
         id="stop48" />
    </linearGradient>
  </defs>
  <sodipodi:namedview
     inkscape:window-maximized="1"
     inkscape:window-y="-8"
     inkscape:window-x="-8"
     inkscape:window-height="1002"
     inkscape:window-width="1920"
     showgrid="false"
     inkscape:document-rotation="0"
     inkscape:current-layer="layer1"
     inkscape:document-units="mm"
     inkscape:cy="16.390773"
     inkscape:cx="44.939284"
     inkscape:zoom="3.959798"
     inkscape:pageshadow="2"
     inkscape:pageopacity="0.0"
     borderopacity="1.0"
     bordercolor="#666666"
     pagecolor="#ffffff"
     id="base" />
  <metadata
     id="metadata549">
    <rdf:RDF>
      <cc:Work
         rdf:about="">
        <dc:format>image/svg+xml</dc:format>
        <dc:type
           rdf:resource="http://purl.org/dc/dcmitype/StillImage" />
        <dc:title></dc:title>
      </cc:Work>
    </rdf:RDF>
  </metadata>
  <g
     id="layer1"
     inkscape:groupmode="layer"
     inkscape:label="Layer 1">
    <g
       transform="matrix(0.35277777,0,0,-0.35277777,-14.796707,257.77545)"
       id="g28">
      <g
         id="g30"
         clip-path="url(#clipPath34)">
        <g
           style="display:inline"
           id="g36">
          <g
             style="display:inline"
             id="g38">
            <path
               d="m 126.755,727.681 c 0,-1.377 1.047,-2.552 2.507,-2.552 v 0 c 1.38,0 2.468,1.175 2.468,2.552 v 0 c 0,1.382 -1.088,2.463 -2.468,2.463 v 0 c -1.46,0 -2.507,-1.081 -2.507,-2.463 m -49.152,0.002 v -6.265 c -1.378,0.627 -3.464,1.209 -5.473,1.209 v 0 c -5.385,0 -8.478,-3.211 -8.941,-8.395 v 0 c -0.124,-1.508 -0.124,-4.474 0,-5.937 v 0 c 0.463,-5.134 3.885,-8.608 9.527,-8.608 v 0 c 4.051,0 7.434,1.802 8.523,2.6 v 0 c 0.67,0.455 0.797,0.917 0.797,1.67 v 0 23.726 c 0,1.252 -0.966,2.257 -2.219,2.257 v 0 c -1.207,0 -2.214,-1.005 -2.214,-2.257 m -9.989,-18.839 c -0.12,1.294 -0.081,3.755 0,4.888 v 0 c 0.173,3.046 1.676,4.637 4.85,4.637 v 0 c 2.177,0 4.264,-0.755 5.139,-1.299 v 0 -11.61 c -0.836,-0.631 -3.005,-1.503 -4.804,-1.503 v 0 c -3.219,0 -4.929,1.669 -5.185,4.887 m 38.681,11.488 c -0.623,-0.421 -0.882,-0.84 -0.882,-1.712 v 0 -16.417 c 0,-1.255 1.046,-2.261 2.22,-2.261 v 0 c 1.249,0 2.215,1.006 2.215,2.261 v 0 14.99 c 0.953,0.588 2.921,1.176 4.964,1.176 v 0 c 2.595,0 4.855,-1.424 4.855,-4.767 v 0 -11.399 c 0,-1.255 1.04,-2.261 2.21,-2.261 v 0 c 1.299,0 2.217,1.006 2.217,2.261 v 0 11.61 c 0,5.643 -3.095,8.814 -9.151,8.814 v 0 c -4.386,0 -7.438,-1.379 -8.648,-2.295 m -18.879,1.047 c -1.127,-0.505 -1.466,-1.34 -1.466,-2.053 v 0 c 0,-1.294 1.216,-2.256 3.054,-1.669 v 0 c 1.171,0.418 2.843,0.918 4.555,0.918 v 0 c 3.254,0 4.637,-1.212 4.637,-4.052 v 0 -1.376 c -1.924,0.455 -3.349,0.704 -5.309,0.704 v 0 c -5.847,0 -8.481,-3.301 -8.481,-6.933 v 0 c 0,-4.095 2.838,-7.231 8.563,-7.231 v 0 c 4.347,0 7.525,1.553 8.697,2.343 v 0 c 0.624,0.421 0.79,0.875 0.79,1.63 v 0 10.863 c 0,5.642 -3.302,8.104 -8.649,8.104 v 0 c -2.542,0 -5.178,-0.663 -6.391,-1.248 m 1.336,-14.298 c 0,2.008 1.836,3.14 4.385,3.14 v 0 c 1.884,0 3.22,-0.253 5.059,-0.709 v 0 -4.643 c -0.421,-0.329 -1.962,-1.295 -4.848,-1.295 v 0 c -2.965,0 -4.596,1.255 -4.596,3.507 m -43.234,14.298 c -1.126,-0.505 -1.466,-1.34 -1.466,-2.053 v 0 c 0,-1.294 1.214,-2.256 3.054,-1.669 v 0 c 1.17,0.418 2.845,0.918 4.553,0.918 v 0 c 3.262,0 4.639,-1.212 4.639,-4.052 v 0 -1.376 c -1.924,0.455 -3.343,0.704 -5.307,0.704 v 0 c -5.65,0 -8.298,-3.083 -8.471,-6.564 v 0 -0.767 c 0.179,-3.896 3.016,-6.833 8.552,-6.833 v 0 c 4.351,0 7.522,1.553 8.697,2.343 v 0 c 0.625,0.421 0.79,0.875 0.79,1.63 v 0 10.863 c 0,5.642 -3.302,8.104 -8.648,8.104 v 0 c -2.549,0 -5.179,-0.663 -6.393,-1.248 m 1.34,-14.298 c 0,2.008 1.835,3.14 4.384,3.14 v 0 c 1.879,0 3.22,-0.253 5.056,-0.709 v 0 -4.643 c -0.416,-0.329 -1.967,-1.295 -4.849,-1.295 v 0 c -2.964,0 -4.591,1.255 -4.591,3.507 m 80.189,12.911 v -17.878 c 0,-1.254 1.046,-2.261 2.215,-2.261 v 0 c 1.252,0 2.22,1.007 2.22,2.261 v 0 17.878 c 0,1.252 -1.007,2.257 -2.22,2.257 v 0 c -1.254,0 -2.215,-1.005 -2.215,-2.257"
               style="display:inline;fill:url(#linearGradient50);stroke:none"
               id="path52" />
          </g>
        </g>
      </g>
    </g>
  </g>
</svg>
