<?xml version="1.0" encoding="UTF-8" standalone="no"?>
<!-- Created with Inkscape (http://www.inkscape.org/) -->

<svg
   xmlns:dc="http://purl.org/dc/elements/1.1/"
   xmlns:cc="http://creativecommons.org/ns#"
   xmlns:rdf="http://www.w3.org/1999/02/22-rdf-syntax-ns#"
   xmlns:svg="http://www.w3.org/2000/svg"
   xmlns="http://www.w3.org/2000/svg"
   xmlns:sodipodi="http://sodipodi.sourceforge.net/DTD/sodipodi-0.dtd"
   xmlns:inkscape="http://www.inkscape.org/namespaces/inkscape"
   id="svg2"
   version="1.1"
   inkscape:version="0.47 r22583"
   width="300"
   height="198"
   xml:space="preserve"
   sodipodi:docname="havells.pdf"><metadata
     id="metadata8"><rdf:RDF><cc:Work
         rdf:about=""><dc:format>image/svg+xml</dc:format><dc:type
           rdf:resource="http://purl.org/dc/dcmitype/StillImage" /><dc:title></dc:title></cc:Work></rdf:RDF></metadata><defs
     id="defs6"><inkscape:perspective
       sodipodi:type="inkscape:persp3d"
       inkscape:vp_x="0 : 0.5 : 1"
       inkscape:vp_y="0 : 1000 : 0"
       inkscape:vp_z="1 : 0.5 : 1"
       inkscape:persp3d-origin="0.5 : 0.33333333 : 1"
       id="perspective10" /><clipPath
       clipPathUnits="userSpaceOnUse"
       id="clipPath18"><path
         d="m -9,-9 1294,0 0,1011 -1294,0 0,-1011 z"
         clip-rule="evenodd"
         id="path20" /></clipPath><clipPath
       clipPathUnits="userSpaceOnUse"
       id="clipPath54"><path
         d="m 67.545,836.838 568.411,0 0,-715.556 -568.411,0 0,715.556 z"
         clip-rule="evenodd"
         id="path56" /></clipPath><clipPath
       clipPathUnits="userSpaceOnUse"
       id="clipPath238"><path
         d="m 958.321,589.824 262.18,0 0,278.69 -262.18,0 0,-278.69 z"
         clip-rule="evenodd"
         id="path240" /></clipPath><clipPath
       clipPathUnits="userSpaceOnUse"
       id="clipPath314"><path
         d="m 674.032,589.171 262.181,0 0,279.842 -262.181,0 0,-279.842 z"
         clip-rule="evenodd"
         id="path316" /></clipPath><clipPath
       clipPathUnits="userSpaceOnUse"
       id="clipPath428"><path
         d="m 673.277,304.798 547.5,0 0,75.819 -547.5,0 0,-75.819 z"
         clip-rule="evenodd"
         id="path430" /></clipPath><clipPath
       clipPathUnits="userSpaceOnUse"
       id="clipPath524"><path
         d="m 958.231,431.266 262.545,0 0,126.593 -262.545,0 0,-126.593 z"
         clip-rule="evenodd"
         id="path526" /></clipPath><clipPath
       clipPathUnits="userSpaceOnUse"
       id="clipPath556"><path
         d="m 673.277,226.552 547.5,0 0,47.018 -547.5,0 0,-47.018 z"
         clip-rule="evenodd"
         id="path558" /></clipPath></defs><sodipodi:namedview
     pagecolor="#ffffff"
     bordercolor="#666666"
     borderopacity="1"
     objecttolerance="10"
     gridtolerance="10"
     guidetolerance="10"
     inkscape:pageopacity="0"
     inkscape:pageshadow="2"
     inkscape:window-width="1280"
     inkscape:window-height="722"
     id="namedview4"
     showgrid="false"
     inkscape:zoom="2.1146072"
     inkscape:cx="249.15903"
     inkscape:cy="91.153935"
     inkscape:window-x="-8"
     inkscape:window-y="20"
     inkscape:window-maximized="1"
     inkscape:current-layer="g12" /><g
     id="g12"
     inkscape:groupmode="layer"
     inkscape:label="havells"
     transform="matrix(1.25,0,0,-1.25,11.25,186.75002)"><g
       id="g5436"
       transform="matrix(2.2055828,0,0,2.2055828,-2446.3988,-264.69251)"><path
         d="m 1105.8956,132.88 5.092,0 0,-5.455 4.814,0 0,5.455 5.093,0 0,-16.12 -5.093,0 0,6.238 -4.814,0 0,-6.238 -5.092,0 0,16.12 z m 22.218,0 5.157,0 5.543,-16.12 -5.049,0 -0.622,2.145 -5.029,0 -0.602,-2.145 -4.942,0 5.544,16.12 z m 0.946,-10.619 3.201,0 -1.633,5.767 -1.568,-5.767 z m 8.809,10.619 5.136,0 2.729,-10.709 2.814,10.709 5.114,0 -5.372,-16.12 -5.113,0 -5.308,16.12 z m 17.878,0 12.634,0 0,-3.756 -7.542,0 0,-2.326 6.36,0 0,-3.755 -6.36,0 0,-2.527 7.844,0 0,-3.756 -12.936,0 0,16.12 z m 15.535,0 5.093,0 0,-12.364 6.961,0 0,-3.756 -12.054,0 0,16.12 z m 14.353,0 5.092,0 0,-12.364 6.963,0 0,-3.756 -12.055,0 0,16.12 z m 22.283,-4.672 c -0.129,0.923 -0.823,1.385 -2.085,1.385 -1.003,0 -1.524,-0.29 -1.568,-0.872 -0.014,-0.358 0.153,-0.655 0.505,-0.894 0.351,-0.238 0.82,-0.436 1.407,-0.593 0.587,-0.157 1.154,-0.302 1.698,-0.436 1.819,-0.447 3.159,-1.051 4.018,-1.81 0.859,-0.76 1.282,-1.812 1.268,-3.153 0,-1.311 -0.337,-2.381 -1.01,-3.209 -0.674,-0.826 -1.558,-1.419 -2.653,-1.777 -1.096,-0.358 -2.274,-0.536 -3.536,-0.536 -1.89,0 -3.491,0.503 -4.802,1.509 -1.311,1.006 -2.009,2.313 -2.095,3.923 l 4.878,0 c 0.114,-0.64 0.412,-1.088 0.892,-1.341 0.479,-0.253 0.977,-0.38 1.493,-0.38 1.246,0.059 1.905,0.425 1.977,1.096 0.057,0.462 -0.168,0.816 -0.677,1.061 -0.509,0.247 -1.293,0.503 -2.354,0.772 -1.331,0.343 -2.392,0.694 -3.179,1.051 -0.788,0.358 -1.437,0.891 -1.945,1.599 -0.509,0.707 -0.756,1.642 -0.741,2.806 0.029,1.446 0.64,2.623 1.837,3.532 1.196,0.91 2.833,1.364 4.91,1.364 1.103,0 2.116,-0.161 3.04,-0.48 0.925,-0.321 1.708,-0.866 2.354,-1.633 0.644,-0.768 1.045,-1.762 1.202,-2.984 l -4.834,0 z"
         style="fill:#ed1c24;fill-opacity:1;fill-rule:nonzero;stroke:none"
         id="path604" /><path
         d="m 1145.789,174.2139 c -0.153,0.001 -0.288,0.009 -0.412,0.028 -0.865,0.13 -1.521,0.642 -1.845,1.442 -0.152,0.377 -0.226,0.772 -0.226,1.208 0,0.611 0.149,1.221 0.28,1.685 0.709,2.525 1.52,4.297 2.48,5.422 0.183,0.215 0.37,0.4 0.554,0.55 l 0.058,0.041 c 0.022,0.019 0.046,0.036 0.068,0.052 0.354,0.258 0.696,0.382 1.027,0.383 0.789,0 1.627,-0.721 2.364,-2.032 0.767,-1.36 1.432,-3.342 1.926,-5.733 0.166,-0.808 0.309,-1.633 0.434,-2.51 -0.344,-0.023 -0.689,-0.045 -1.033,-0.069 -1.155,-0.08 -2.224,-0.164 -3.267,-0.257 -0.513,-0.047 -1.026,-0.095 -1.537,-0.147 l -0.12,-0.012 c -0.261,-0.027 -0.508,-0.051 -0.751,-0.051"
         style="fill:#f25746;fill-opacity:1;fill-rule:nonzero;stroke:none"
         id="path608" /><path
         d="m 1147.1457,146.2266 -0.01,0 c -0.342,0 -0.694,0.138 -1.044,0.408 l -10e-4,0 -0.01,0.011 -0.026,0.019 -0.023,0.018 -0.025,0.021 c -0.013,0.009 -0.024,0.02 -0.038,0.028 -0.183,0.157 -0.365,0.35 -0.542,0.572 -0.957,1.2 -1.729,3.091 -2.359,5.778 -0.139,0.589 -0.274,1.218 -0.274,1.836 0,0.454 0.072,0.879 0.221,1.299 0.313,0.883 0.95,1.492 1.793,1.713 0.229,0.059 0.469,0.088 0.738,0.088 0.162,0 0.327,-0.01 0.525,-0.029 0.513,-0.052 1.054,-0.101 1.607,-0.15 1.105,-0.096 2.26,-0.185 3.436,-0.264 0.415,-0.028 0.832,-0.054 1.248,-0.081 -0.168,-1.1 -0.361,-2.118 -0.585,-3.107 -0.561,-2.473 -1.292,-4.539 -2.111,-5.97 -0.796,-1.391 -1.716,-2.19 -2.526,-2.19"
         style="fill:#ba151b;fill-opacity:1;fill-rule:nonzero;stroke:none"
         id="path612" /><path
         d="m 1182.0257,165.6077 c -0.025,5.017 -1.649,9.99 -4.574,14.003 -2.367,3.245 -5.435,5.729 -8.983,7.304 -0.273,0.108 -1.198,0.36 -1.433,0.313 -0.875,-0.175 -1.501,-0.999 -1.691,-2.065 -0.047,-0.261 -0.067,-0.538 -0.058,-0.822 -0.034,-0.54 -0.065,-1.107 -0.095,-1.725 -0.01,-0.103 -0.011,-0.26 -0.018,-0.447 -0.027,-0.697 -0.067,-1.75 -0.137,-2.159 -0.619,-3.56 -4.207,-5.814 -7.316,-5.937 -2.122,-0.082 -4.205,-0.194 -6.191,-0.33 -1.102,-0.078 -2.195,-0.164 -3.249,-0.257 -0.508,-0.046 -1.018,-0.093 -1.528,-0.145 l -0.118,-0.012 c -0.272,-0.028 -0.554,-0.057 -0.847,-0.057 -0.196,0 -0.377,0.012 -0.548,0.038 -1.194,0.177 -2.135,0.913 -2.58,2.021 -0.199,0.492 -0.295,1.002 -0.295,1.563 0,0.722 0.168,1.416 0.314,1.939 0.271,0.959 0.645,2.164 1.174,3.328 -1.794,-1.82 -3.301,-3.952 -4.423,-6.276 -1.501,-3.108 -2.33,-6.582 -2.396,-10.05 0,-0.154 0,-0.306 0,-0.46 -10e-4,-6.089 2.252,-11.846 6.255,-16.166 -0.53,1.274 -0.882,2.606 -1.128,3.657 -0.152,0.644 -0.299,1.333 -0.299,2.052 0,0.564 0.089,1.091 0.273,1.613 0.42,1.188 1.288,2.007 2.445,2.309 0.306,0.082 0.625,0.12 0.975,0.12 0.19,0 0.393,-0.011 0.62,-0.034 0.507,-0.051 1.029,-0.099 1.594,-0.148 1.087,-0.096 2.235,-0.184 3.416,-0.263 2.068,-0.14 4.246,-0.252 6.474,-0.335 1.723,-0.064 3.513,-0.767 4.91,-1.928 1.477,-1.227 2.418,-2.856 2.653,-4.591 0.049,-0.363 0.097,-1.403 0.133,-2.161 0.012,-0.249 0.02,-0.455 0.027,-0.573 0.05,-0.872 0.101,-1.639 0.156,-2.344 0,-0.003 0,-0.004 0,-0.004 0.023,-0.308 0.047,-0.59 0.07,-0.853 0.194,-0.984 0.772,-1.745 1.591,-1.935 0.279,-0.066 0.563,-0.055 0.84,0.014 0.226,0.097 0.451,0.194 0.674,0.297 3.504,1.626 6.526,4.138 8.851,7.389 2.879,4.031 4.465,9.004 4.465,13.998 l 0,0.119 z"
         style="fill:#ed1c24;fill-opacity:1;fill-rule:nonzero;stroke:none"
         id="path616" /></g></g></svg>