<svg height="245.622838" viewBox="0 0 31.955283 19.387623" width="407.128266" xmlns="http://www.w3.org/2000/svg" xmlns:xlink="http://www.w3.org/1999/xlink"><symbol id="a" overflow="visible"/><symbol id="b" overflow="visible"/><symbol id="c" overflow="visible"/><symbol id="d" overflow="visible"/><symbol id="e" overflow="visible"/><symbol id="f" overflow="visible"/><symbol id="g" overflow="visible"/><g transform="translate(3613.0711 -874.37014)"><use fill="#193861" height="100%" transform="matrix(.35277778 0 0 .35277778 -26.332489 148.83265)" width="100%" x="459.06601" xlink:href="#a" y="217.7599"/><use fill="#193861" height="100%" transform="matrix(.35277778 0 0 .35277778 -26.332489 148.83265)" width="100%" x="258.70334" xlink:href="#a" y="255.25635"/><use fill="#fff" height="100%" transform="matrix(.35277778 0 0 .35277778 -84.720652 36.998775)" width="100%" x="202.5314" xlink:href="#b" y="203.76401"/><use fill="#f5631e" height="100%" transform="matrix(.35277778 0 0 .35277778 -84.720652 36.998775)" width="100%" x="494.55399" xlink:href="#c" y="117.561"/><use fill="#3f3f3f" height="100%" transform="matrix(.35277779 0 0 .35277779 -85.745522 -36.773619)" width="100%" x="273.85706" xlink:href="#d" y="135.0817"/><use fill="#fff" height="100%" transform="matrix(.35277779 0 0 .35277779 -85.745522 -36.773619)" width="100%" x="319.87701" xlink:href="#e" y="238.2066"/><use fill="#fff" height="100%" transform="matrix(.35277777 0 0 .35277777 -3429.1675 730.9537)" width="100%" x="224.6996" xlink:href="#f" y="663.31329"/><use fill="#fff" height="100%" transform="matrix(.35277777 0 0 .35277777 -3429.1675 730.9537)" width="100%" x="235.0708" xlink:href="#f" y="671.81128"/><g fill="#007fc5"><path d="m-3604.4515 883.25435h3.5485v1.03491h-1.028v2.45428h-1.4773v-2.45428h-1.0432"/><path d="m-3599.1143 884.67373-.7442 2.06981h-1.4166l1.3863-3.48919h1.5352l1.4317 3.48919h-1.4317"/><path d="m-3597.265 883.25435h3.5485v1.03491h-1.0143v2.45428h-1.4759v-2.45428h-1.0583"/><path d="m-3591.9279 884.67373-.7441 2.06981h-1.418l1.3877-3.48919h1.5351l1.4318 3.48919h-1.4318"/><path d="m-3591.8672 876.84234c-.1337-.24116-.3128-.48231-.5209-.69453-.4934-.51125-1.1782-.92191-1.9996-1.20578-.8199-.29766-1.7445-.4396-2.6982-.4396-.9536 0-1.8934.14194-2.7133.4396-.8062.28387-1.491.69453-1.983 1.20578-.2095.21222-.3872.45337-.5223.69453 1.0584-.24116 2.8622-.55259 4.5475-.59531.164 0 .2839.0427.3432.14194.089.0992.089.48231.089.66697l-.045 4.44003c.09 0 .1791.0138.2838.0138.09 0 .1944 0 .2839-.0138l-.045-4.44003c0-.18466-.015-.56776.074-.66697.076-.0992.1943-.14194.3431-.14194 1.6853.0427 3.5043.35415 4.5627.59531"/><path d="m-3591.644 877.42387c-1.5503-.32522-2.5948-.39687-3.6077-.43959-.8957-.0565-.8957.25493-.8213.82269.017.0427.017.0854.03.12815.299 1.6881.6711 3.13504.7304 3.3762 2.1773-.46854 3.7427-1.77354 3.7427-3.30592 0-.19843-.029-.39687-.074-.58153"/><path d="m-3598.1152 877.80697c.09-.56776.076-.87919-.8048-.82269-1.028.0427-2.0574.11437-3.6077.43959-.045.18466-.074.3831-.074.58153 0 .65319.2825 1.30501.8199 1.85898.492.49609 1.1768.90812 1.983 1.192.2977.113.6105.19844.9247.26872.059-.24116.4464-1.71566.7441-3.4327"/></g><use fill="#211e1e" height="100%" transform="matrix(.35277776 0 0 .35277776 -3703.859 869.62831)" width="100%" x="280.85779" xlink:href="#g" y="102.4435"/><use fill="#211e1e" height="100%" transform="matrix(.35277776 0 0 .35277776 -3703.859 869.62831)" width="100%" x="384.37399" xlink:href="#g" y="102.4431"/><use fill="#211e1e" height="100%" transform="matrix(.35277776 0 0 .35277776 -3703.859 869.62831)" width="100%" x="420.75201" xlink:href="#g" y="102.4431"/><use fill="#211e1e" height="100%" transform="matrix(.35277776 0 0 .35277776 -3703.859 869.62831)" width="100%" x="549.21771" xlink:href="#g" y="411.1889"/><use fill="#211e1e" height="100%" transform="matrix(.35277776 0 0 .35277776 -3703.859 869.62831)" width="100%" x="474.40509" xlink:href="#g" y="531.39313"/><use fill="#211e1e" height="100%" transform="matrix(.35277776 0 0 .35277776 -3703.859 869.62831)" width="100%" x="64.416397" xlink:href="#g" y="673.6922"/><path d="m-3596.4368 893.5607v-3.38171h.9536c.3555 0 .5871.0165.6973.0482.1736.0524.3169.16399.4313.33487.113.17087.1695.38998.1695.66008 0 .24391-.05.44924-.1461.6146-.098.16537-.2204.27974-.3679.34727-.1461.0675-.3982.10059-.7579.10059h-.3886v1.27607zm.5912-2.80844v.95773h.328c.2204 0 .3693-.0138.4492-.0427.079-.0289.1433-.0827.1929-.15847.051-.0772.076-.1695.076-.28112s-.025-.20671-.077-.2825c-.052-.0772-.1171-.12816-.1929-.15572-.077-.0262-.2398-.0372-.4878-.0372zm2.0298 1.13826c0-.40239.062-.7345.1888-.99495s.2908-.45475.4947-.58291c.204-.12678.4507-.19154.7414-.19154.4203 0 .7635.15158 1.028.45475.2646.30317.3969.73449.3969 1.29398 0 .56499-.1392 1.00734-.4203 1.32567-.2467.2825-.5801.42306-1.0018.42306-.4258 0-.7607-.14056-1.0074-.41755-.2811-.31833-.4203-.75516-.4203-1.31051m.6105-.0234c0 .38998.079.68075.2343.87643.1571.19293.35.29077.5829.29077s.4258-.0965.5788-.28939c.1529-.19293.2301-.48921.2301-.88884 0-.39274-.074-.68213-.2233-.87092-.1488-.18603-.3445-.28112-.5856-.28112-.2412 0-.4382.0951-.5898.28388-.1516.19017-.2274.48369-.2274.87919m3.1171 1.69361-.7014-3.38171h.6077l.441 2.322.5374-2.322h.707l.5153 2.36196.4534-2.36196h.5967l-.7152 3.38171h-.6311l-.5857-2.5287-.5815 2.5287zm3.4617 0v-3.38171h2.1814v.57326h-1.5903v.74828h1.4773v.56913h-1.4773v.92053h1.644v.57051zm2.7381 0v-3.38171h1.2485c.3211 0 .5485.0303.6863.091.1364.0606.2494.16674.3362.31557.09.15159.1323.33073.1323.53882 0 .26458-.066.47817-.2012.63941-.135.16123-.3266.2632-.5732.30454.1267.0868.2315.17915.3142.2825.084.10197.197.28525.3403.54984l.3569.66008h-.7055l-.4313-.73588c-.1544-.26596-.2591-.4327-.3156-.49884-.055-.0675-.1144-.113-.1764-.13919-.061-.0248-.1599-.0372-.2977-.0372h-.1212v1.41111zm.5926-1.95268h.4396c.2687 0 .4396-.01.5126-.0317.074-.0234.1337-.0675.1791-.13504.045-.0675.069-.15848.069-.2701 0-.10749-.023-.1943-.069-.26045-.045-.0648-.1074-.11024-.186-.13367-.055-.0179-.2163-.0248-.4809-.0248h-.4644" fill="#007fc5"/><path d="m-3612.9388 890.12801h3.5567v1.03766h-1.0308v2.4598h-1.4813v-2.4598h-1.0446" fill="#007fc5"/><path d="m-3607.5906 891.55014-.7469 2.07533h-1.4194l1.3904-3.49746h1.5379l1.4346 3.49746h-1.4346" fill="#007fc5"/><path d="m-3605.7372 890.12801h3.5554v1.03766h-1.0157v2.4598h-1.4786v-2.4598h-1.0611" fill="#007fc5"/><path d="m-3600.389 891.55014-.7469 2.07533h-1.4194l1.3891-3.49746h1.5392l1.4346 3.49746h-1.4346" fill="#007fc5"/></g></svg>